<?xml version="1.0" encoding="utf-8"?>
<!-- Svg Vector Icons : http://www.onlinewebfonts.com/icon -->
<!DOCTYPE svg PUBLIC "-//W3C//DTD SVG 1.1//EN" "http://www.w3.org/Graphics/SVG/1.1/DTD/svg11.dtd">
<svg version="1.1" xmlns="http://www.w3.org/2000/svg" xmlns:xlink="http://www.w3.org/1999/xlink" x="0px" y="0px" viewBox="0 0 1000 1000" enable-background="new 0 0 1000 1000" xml:space="preserve">
<metadata> Svg Vector Icons : http://www.onlinewebfonts.com/icon </metadata>
<g><path d="M863,373c0-200.5-162.6-363-363-363c-200.5,0-363,162.5-363,363c0,182,134,332.1,308.5,358.4v40.9H282.2v108.8h163.4V990h108.8V881.2h163.4V772.3H554.5v-40.9C729,705.1,863,554.9,863,373z M245.9,373c0-140.3,113.7-254.1,254.1-254.1S754.1,232.6,754.1,373C754.1,513.3,640.3,627,500,627S245.9,513.3,245.9,373z"/></g>
</svg>