<?xml version="1.0" encoding="utf-8"?>
<!-- Svg Vector Icons : http://www.onlinewebfonts.com/icon -->
<!DOCTYPE svg PUBLIC "-//W3C//DTD SVG 1.1//EN" "http://www.w3.org/Graphics/SVG/1.1/DTD/svg11.dtd">
<svg version="1.1" xmlns="http://www.w3.org/2000/svg" xmlns:xlink="http://www.w3.org/1999/xlink" x="0px" y="0px" viewBox="0 0 1000 1000" enable-background="new 0 0 1000 1000" xml:space="preserve">
<metadata> Svg Vector Icons : http://www.onlinewebfonts.com/icon </metadata>
<g><path d="M336.7,336.7c70.2,0,136.1,22.3,188.9,60.4l278.2-278.2H554.4V10H990v435.6H881.1V195.7L602.9,472.8c38.1,54.4,60.4,119.8,60.4,190.6c0,180.2-146.5,326.7-326.7,326.7C156.5,990,10,843.5,10,663.3S156.5,336.7,336.7,336.7 M336.7,445.6c-120.3,0-217.8,97.5-217.8,217.8c0,120.3,97.5,217.8,217.8,217.8c120.3,0,217.8-97.5,217.8-217.8C554.4,543,457,445.6,336.7,445.6z"/></g>
</svg>