<svg xmlns="http://www.w3.org/2000/svg" width="118" height="16" viewBox="0 0 118 16">
  <g id="Union_2" data-name="Union 2" fill="#707070">
    <path d="M 59.00039672851563 15.50020790100098 C 56.33078002929688 15.50020790100098 53.84116744995117 14.0629768371582 52.50310516357422 11.74937725067139 L 52.35870361328125 11.49970054626465 L 52.07027435302734 11.49970054626465 L 3.99959659576416 11.49970054626465 C 2.069904327392578 11.49970054626465 0.4999965727329254 9.92939281463623 0.4999965727329254 7.999207973480225 C 0.4999965727329254 6.069515705108643 2.069904327392578 4.499608039855957 3.99959659576416 4.499608039855957 L 52.07078170776367 4.499608039855957 L 52.35918045043945 4.499608039855957 L 52.50358200073242 4.249977111816406 C 53.15139770507813 3.130100250244141 54.08298110961914 2.190900087356567 55.19761276245117 1.533915519714355 C 56.34514999389648 0.8575308918952942 57.66011810302734 0.5000078082084656 59.00039672851563 0.5000078082084656 C 61.66925811767578 0.5000078082084656 64.15836334228516 1.93690013885498 65.49635314941406 4.249961853027344 L 65.6407470703125 4.499608039855957 L 65.92915344238281 4.499608039855957 L 114.0003051757813 4.499608039855957 C 115.9300003051758 4.499608039855957 117.4999008178711 6.069515705108643 117.4999008178711 7.999207973480225 C 117.4999008178711 9.92939281463623 115.9300003051758 11.49970054626465 114.0003051757813 11.49970054626465 L 65.92965698242188 11.49970054626465 L 65.64122772216797 11.49970054626465 L 65.496826171875 11.74937725067139 C 64.15882873535156 14.0629768371582 61.66953659057617 15.50020790100098 59.00039672851563 15.50020790100098 Z" stroke="none"/>
    <path d="M 59.00039672851563 15.00020790100098 C 61.49162673950195 15.00020790100098 63.81505966186523 13.65865421295166 65.06399536132813 11.49906921386719 L 65.35279846191406 10.99970054626465 L 65.92965698242188 10.99970054626465 L 114.0003051757813 10.99970054626465 C 115.6542892456055 10.99970054626465 116.9999008178711 9.653684616088867 116.9999008178711 7.999207973480225 C 116.9999008178711 6.345223426818848 115.6542892456055 4.999608039855957 114.0003051757813 4.999608039855957 L 65.92915344238281 4.999608039855957 L 65.35234832763672 4.999608039855957 L 65.06353759765625 4.50031566619873 C 63.81462860107422 2.341253995895386 61.49136734008789 1.00000786781311 59.00039672851563 1.00000786781311 C 56.50894927978516 1.00000786781311 54.18534851074219 2.341253995895386 52.93638229370117 4.500330924987793 L 52.64756393432617 4.999608039855957 L 52.07078170776367 4.999608039855957 L 3.99959659576416 4.999608039855957 C 2.345612049102783 4.999608039855957 0.999996542930603 6.345223426818848 0.999996542930603 7.999207973480225 C 0.999996542930603 9.653684616088867 2.345612049102783 10.99970054626465 3.99959659576416 10.99970054626465 L 52.07027435302734 10.99970054626465 L 52.64712142944336 10.99970054626465 L 52.93592071533203 11.49905395507813 C 54.18492126464844 13.6586389541626 56.50868988037109 15.00020790100098 59.00039672851563 15.00020790100098 M 59.00039672851563 16.00020790100098 C 56.03867340087891 16.00020790100098 53.45333480834961 14.39109992980957 52.07027435302734 11.99970054626465 L 3.99959659576416 11.99970054626465 C 1.790996551513672 11.99970054626465 -3.437218310864409e-06 10.20870018005371 -3.437218310864409e-06 7.999207973480225 C -3.437218310864409e-06 5.790607929229736 1.790996551513672 3.999607801437378 3.99959659576416 3.999607801437378 L 52.07078170776367 3.999607801437378 C 53.45393371582031 1.608561635017395 56.03893661499023 7.828110938135069e-06 59.00039672851563 7.828110938135069e-06 C 61.96125793457031 7.828110938135069e-06 64.54605865478516 1.608561635017395 65.92915344238281 3.999607801437378 L 114.0003051757813 3.999607801437378 C 116.2089004516602 3.999607801437378 117.9999008178711 5.790607929229736 117.9999008178711 7.999207973480225 C 117.9999008178711 10.20870018005371 116.2089004516602 11.99970054626465 114.0003051757813 11.99970054626465 L 65.92965698242188 11.99970054626465 C 64.54666137695313 14.39109992980957 61.9615364074707 16.00020790100098 59.00039672851563 16.00020790100098 Z" stroke="none" fill="#707070"/>
  </g>
</svg>
